<svg width="1400" height="840" viewBox="0 0 1400 840" fill="none" xmlns="http://www.w3.org/2000/svg">
  <rect width="1400" height="840" fill="#F6F2EA"/>
  <rect x="54" y="48" width="1292" height="744" rx="28" fill="#FFFDF9" stroke="#D8CDBF" stroke-width="2"/>
  <text x="92" y="108" fill="#1D2A38" font-family="Arial, sans-serif" font-size="34" font-weight="700">Arquitectura On Premise Segura Para IA</text>
  <text x="92" y="144" fill="#5C6470" font-family="Arial, sans-serif" font-size="20">Separación por capas para reducir fuga de información y bloquear acciones destructivas</text>

  <rect x="90" y="192" width="250" height="130" rx="22" fill="#DCEEFE" stroke="#6C9BCF" stroke-width="2"/>
  <text x="120" y="235" fill="#17324D" font-family="Arial, sans-serif" font-size="25" font-weight="700">Usuarios</text>
  <text x="120" y="270" fill="#17324D" font-family="Arial, sans-serif" font-size="18">Desarrolladores</text>
  <text x="120" y="295" fill="#17324D" font-family="Arial, sans-serif" font-size="18">Analistas e ingenieros</text>

  <rect x="390" y="192" width="250" height="130" rx="22" fill="#E6F7E8" stroke="#6AA36F" stroke-width="2"/>
  <text x="420" y="235" fill="#1D4A22" font-family="Arial, sans-serif" font-size="25" font-weight="700">Identidad</text>
  <text x="420" y="270" fill="#1D4A22" font-family="Arial, sans-serif" font-size="18">SSO</text>
  <text x="420" y="295" fill="#1D4A22" font-family="Arial, sans-serif" font-size="18">MFA + Roles</text>

  <rect x="690" y="192" width="280" height="130" rx="22" fill="#FFF0CF" stroke="#C8A458" stroke-width="2"/>
  <text x="720" y="235" fill="#5D4310" font-family="Arial, sans-serif" font-size="25" font-weight="700">AI Gateway</text>
  <text x="720" y="270" fill="#5D4310" font-family="Arial, sans-serif" font-size="18">Policy enforcement</text>
  <text x="720" y="295" fill="#5D4310" font-family="Arial, sans-serif" font-size="18">Filtro de prompts y herramientas</text>

  <rect x="1020" y="192" width="250" height="130" rx="22" fill="#F9DDE8" stroke="#C27896" stroke-width="2"/>
  <text x="1050" y="235" fill="#5A2139" font-family="Arial, sans-serif" font-size="25" font-weight="700">Runtime IA</text>
  <text x="1050" y="270" fill="#5A2139" font-family="Arial, sans-serif" font-size="18">Modelos locales</text>
  <text x="1050" y="295" fill="#5A2139" font-family="Arial, sans-serif" font-size="18">Agentes y RAG</text>

  <rect x="190" y="428" width="320" height="150" rx="22" fill="#EAE4FF" stroke="#8872D8" stroke-width="2"/>
  <text x="222" y="470" fill="#342462" font-family="Arial, sans-serif" font-size="26" font-weight="700">Conectores Controlados</text>
  <text x="222" y="507" fill="#342462" font-family="Arial, sans-serif" font-size="18">MCP / APIs internas / proxys</text>
  <text x="222" y="534" fill="#342462" font-family="Arial, sans-serif" font-size="18">Solo operaciones permitidas</text>
  <text x="222" y="561" fill="#342462" font-family="Arial, sans-serif" font-size="18">Sin acceso libre a producción</text>

  <rect x="550" y="428" width="320" height="150" rx="22" fill="#DFF4F0" stroke="#5D9F93" stroke-width="2"/>
  <text x="582" y="470" fill="#18443D" font-family="Arial, sans-serif" font-size="26" font-weight="700">Capa de Datos Segura</text>
  <text x="582" y="507" fill="#18443D" font-family="Arial, sans-serif" font-size="18">Read replicas</text>
  <text x="582" y="534" fill="#18443D" font-family="Arial, sans-serif" font-size="18">Vistas curadas y masking</text>
  <text x="582" y="561" fill="#18443D" font-family="Arial, sans-serif" font-size="18">Esquemas read-only</text>

  <rect x="910" y="428" width="320" height="150" rx="22" fill="#FFE7D8" stroke="#CF8D5F" stroke-width="2"/>
  <text x="942" y="470" fill="#5C3116" font-family="Arial, sans-serif" font-size="26" font-weight="700">Oracle y Sistemas Críticos</text>
  <text x="942" y="507" fill="#5C3116" font-family="Arial, sans-serif" font-size="18">Bases transaccionales internas</text>
  <text x="942" y="534" fill="#5C3116" font-family="Arial, sans-serif" font-size="18">Sin acceso directo de la IA</text>
  <text x="942" y="561" fill="#5C3116" font-family="Arial, sans-serif" font-size="18">Operación protegida</text>

  <rect x="310" y="632" width="340" height="106" rx="20" fill="#FFF7DA" stroke="#B79A42" stroke-width="2"/>
  <text x="340" y="676" fill="#5A4913" font-family="Arial, sans-serif" font-size="24" font-weight="700">Secretos y Credenciales</text>
  <text x="340" y="710" fill="#5A4913" font-family="Arial, sans-serif" font-size="18">Vault, rotación y cuentas técnicas limitadas</text>

  <rect x="730" y="632" width="360" height="106" rx="20" fill="#E9EEF5" stroke="#70839B" stroke-width="2"/>
  <text x="760" y="676" fill="#26384B" font-family="Arial, sans-serif" font-size="24" font-weight="700">Auditoría y Observabilidad</text>
  <text x="760" y="710" fill="#26384B" font-family="Arial, sans-serif" font-size="18">Logs, SIEM, trazabilidad y alertas</text>

  <path d="M340 257H390" stroke="#50616F" stroke-width="4" stroke-linecap="round"/>
  <path d="M640 257H690" stroke="#50616F" stroke-width="4" stroke-linecap="round"/>
  <path d="M970 257H1020" stroke="#50616F" stroke-width="4" stroke-linecap="round"/>
  <path d="M1145 322V382" stroke="#50616F" stroke-width="4" stroke-linecap="round"/>
  <path d="M830 322V382" stroke="#50616F" stroke-width="4" stroke-linecap="round"/>
  <path d="M350 322V382" stroke="#50616F" stroke-width="4" stroke-linecap="round"/>
  <path d="M510 503H550" stroke="#50616F" stroke-width="4" stroke-linecap="round"/>
  <path d="M870 503H910" stroke="#50616F" stroke-width="4" stroke-linecap="round"/>
  <path d="M710 578V632" stroke="#50616F" stroke-width="4" stroke-linecap="round"/>
  <path d="M560 628L560 590L350 590L350 632" stroke="#50616F" stroke-width="4" stroke-linecap="round" stroke-linejoin="round"/>

  <text x="106" y="775" fill="#7B6E60" font-family="Arial, sans-serif" font-size="18">Principio: la IA se integra por capas, con acceso limitado, secretos gestionados y auditoría completa.</text>
</svg>
