<svg width="1500" height="860" viewBox="0 0 1500 860" fill="none" xmlns="http://www.w3.org/2000/svg">
  <rect width="1500" height="860" fill="#F6F4EF"/>
  <text x="84" y="92" fill="#1E2732" font-family="Arial, sans-serif" font-size="36" font-weight="700">Proxy / Gateway / Guardrails Frente al LLM</text>
  <text x="84" y="130" fill="#5B6571" font-family="Arial, sans-serif" font-size="20">Capa intermedia para inspeccionar prompts, bloquear fuga de datos y aplicar políticas antes de llegar al modelo</text>

  <rect x="96" y="256" width="250" height="126" rx="22" fill="#DDEBFA" stroke="#789DCC" stroke-width="2"/>
  <text x="128" y="305" fill="#1D3D60" font-family="Arial, sans-serif" font-size="28" font-weight="700">Aplicación / Usuario</text>
  <text x="128" y="341" fill="#1D3D60" font-family="Arial, sans-serif" font-size="18">Chat, agente, API interna</text>

  <rect x="432" y="176" width="410" height="286" rx="26" fill="#FFF0CC" stroke="#C59F4E" stroke-width="3"/>
  <text x="468" y="228" fill="#634711" font-family="Arial, sans-serif" font-size="30" font-weight="700">AI Proxy / Gateway / Guardrails</text>
  <text x="468" y="276" fill="#634711" font-family="Arial, sans-serif" font-size="20">Inspecciona el prompt antes de enviarlo</text>
  <circle cx="480" cy="328" r="6" fill="#9A6E17"/><text x="500" y="335" fill="#634711" font-family="Arial, sans-serif" font-size="19">Detección de prompt injection y jailbreak</text>
  <circle cx="480" cy="370" r="6" fill="#9A6E17"/><text x="500" y="377" fill="#634711" font-family="Arial, sans-serif" font-size="19">Redacción de PII y secretos</text>
  <circle cx="480" cy="412" r="6" fill="#9A6E17"/><text x="500" y="419" fill="#634711" font-family="Arial, sans-serif" font-size="19">Políticas, blocklists y DLP</text>

  <rect x="928" y="256" width="250" height="126" rx="22" fill="#E8F6E8" stroke="#78A67D" stroke-width="2"/>
  <text x="990" y="305" fill="#214727" font-family="Arial, sans-serif" font-size="28" font-weight="700">LLM</text>
  <text x="976" y="341" fill="#214727" font-family="Arial, sans-serif" font-size="18">Proveedor en nube u on-prem</text>

  <rect x="1230" y="256" width="184" height="126" rx="22" fill="#FCE5EC" stroke="#C7869D" stroke-width="2"/>
  <text x="1262" y="305" fill="#5B2840" font-family="Arial, sans-serif" font-size="28" font-weight="700">Respuesta</text>
  <text x="1262" y="341" fill="#5B2840" font-family="Arial, sans-serif" font-size="18">También puede filtrarse</text>

  <path d="M346 319H432" stroke="#546272" stroke-width="4" stroke-linecap="round"/>
  <path d="M842 319H928" stroke="#546272" stroke-width="4" stroke-linecap="round"/>
  <path d="M1178 319H1230" stroke="#546272" stroke-width="4" stroke-linecap="round"/>

  <rect x="190" y="540" width="1120" height="214" rx="28" fill="#FFFFFF" stroke="#D8D0C4" stroke-width="2"/>
  <text x="230" y="598" fill="#1F2934" font-family="Arial, sans-serif" font-size="28" font-weight="700">Utilidad principal de esta capa</text>
  <circle cx="242" cy="648" r="7" fill="#2F7AD8"/><text x="266" y="654" fill="#33414F" font-family="Arial, sans-serif" font-size="21">Evitar que datos confidenciales salgan hacia el LLM sin control</text>
  <circle cx="242" cy="692" r="7" fill="#2F7AD8"/><text x="266" y="698" fill="#33414F" font-family="Arial, sans-serif" font-size="21">Bloquear ataques de prompt injection y uso malicioso</text>
  <circle cx="760" cy="648" r="7" fill="#2E8A45"/><text x="784" y="654" fill="#33414F" font-family="Arial, sans-serif" font-size="21">Aplicar políticas centralizadas para todos los equipos y aplicaciones</text>
  <circle cx="760" cy="692" r="7" fill="#2E8A45"/><text x="784" y="698" fill="#33414F" font-family="Arial, sans-serif" font-size="21">Registrar auditoría de prompts y respuestas de forma consistente</text>
</svg>
